<?xml version="1.0" standalone="no"?>
<!DOCTYPE svg PUBLIC "-//W3C//DTD SVG 20010904//EN"
 "http://www.w3.org/TR/2001/REC-SVG-20010904/DTD/svg10.dtd">
<svg version="1.0" xmlns="http://www.w3.org/2000/svg"
 width="1528.000000pt" height="629.000000pt" viewBox="0 0 1528.000000 629.000000"
 preserveAspectRatio="xMidYMid meet">
<g transform="translate(0.000000,629.000000) scale(0.100000,-0.100000)"
fill="#000000" stroke="none">
<path d="M2140 3174 c-1158 -1714 -2113 -3129 -2123 -3145 l-19 -29 639 0 638
0 425 640 425 640 1209 0 1209 0 -7 -292 c-3 -161 -9 -449 -12 -640 l-7 -348
662 0 661 0 0 133 c0 167 67 5564 74 5905 l4 252 -837 0 -837 0 -2104 -3116z
m2451 594 c-12 -662 -24 -1240 -27 -1285 l-6 -83 -840 0 c-503 0 -838 4 -836
9 7 21 1723 2570 1726 2566 3 -2 -5 -546 -17 -1207z"/>
<path d="M6800 5731 l0 -560 663 -4 c703 -5 716 -5 903 -57 304 -83 434 -258
464 -623 12 -145 -1 -357 -30 -476 -56 -232 -219 -385 -480 -451 -188 -48
-259 -52 -907 -57 l-613 -5 0 -559 0 -559 323 0 324 0 799 -1186 c439 -653
803 -1188 809 -1190 5 -2 337 -3 737 -2 l727 3 -834 1255 c-459 690 -833 1259
-832 1264 2 5 42 20 89 32 596 158 998 598 1137 1244 71 334 80 781 20 1110
-149 830 -657 1227 -1733 1357 -104 12 -280 16 -848 20 l-718 5 0 -561z"/>
<path d="M11350 3145 l0 -3145 1965 0 1965 0 -2 588 -3 587 -1322 3 -1323 2 0
2555 0 2555 -640 0 -640 0 0 -3145z"/>
</g>
</svg>
